<?xml version="1.0" encoding="UTF-8" standalone="no"?>

<svg
   width="800"
   height="800"
   viewBox="0 0 24 24"
   fill="none"
   version="1.1"
   id="svg7"
   xmlns="http://www.w3.org/2000/svg"
   xmlns:svg="http://www.w3.org/2000/svg">
  <defs
     id="defs7" />
   <path
     style="fill:#a6a8e5;stroke:none;stroke-width:0.036"
     d="M 17.446558,4.4057884 C 14.970128,3.4310238 10.31594,3.3607718 7.6023523,4.1072281 4.8887644,4.8536844 4.1160091,6.4167576 3.5890987,8.1731256 3.0621884,9.9294936 2.781181,11.878982 2.8514384,13.371876 c 0.070258,1.492892 0.4917602,2.529086 0.8781614,3.40727 0.386401,0.878186 0.7376602,1.598267 1.6334041,2.26568 0.8957437,0.667412 2.3359077,1.282116 4.4610985,1.624602 2.1251906,0.342486 4.9352096,0.412736 6.9638146,-0.33372 2.028604,-0.746457 3.27555,-2.30953 3.767334,-4.311789 0.491783,-2.00226 0.228339,-4.443512 -0.05268,-6.6038204 -0.281016,-2.160308 -0.579585,-4.0395457 -3.056015,-5.0143102 z"
     id="path8" />
  <path
     d="M 8.3712,22.8 C 2.465712,22.8 1.2,21.53424 1.2,15.6288"
     stroke="#323232"
     stroke-width="2.4"
     stroke-linecap="round"
     id="path1" />
  <path
     d="M 22.8,15.6288 C 22.8,21.53424 21.53424,22.8 15.6288,22.8"
     stroke="#323232"
     stroke-width="2.4"
     stroke-linecap="round"
     id="path2" />
  <path
     d="M 15.6288,1.2 C 21.53424,1.2 22.8,2.465712 22.8,8.3712"
     stroke="#323232"
     stroke-width="2.4"
     stroke-linecap="round"
     id="path3" />
  <path
     d="m 7.2,14.4 c 1.094652,1.45728 2.8374,2.4 4.80048,2.4 1.96296,0 3.70572,-0.94272 4.80036,-2.4"
     stroke="#323232"
     stroke-width="2.4"
     stroke-linecap="round"
     id="path4" />
  <path
     d="M 8.4,9.61344 V 9.6"
     stroke="#323232"
     stroke-width="2.4"
     stroke-linecap="round"
     id="path5" />
  <path
     d="M 15.6,9.61344 V 9.6"
     stroke="#323232"
     stroke-width="2.4"
     stroke-linecap="round"
     id="path6" />
  <path
     d="M 1.2,8.3712 C 1.2,2.465712 2.465712,1.2 8.3712,1.2"
     stroke="#323232"
     stroke-width="2.4"
     stroke-linecap="round"
     id="path7" />
</svg>
